,
Brought to you by  http://www.scenetime.com/signup.php
 
 Hottest scene tracker on the net !!!   
 
No fake torrents from scenebalance 
shame on those who comment fake before downloading my torrents

    seed back for speed


 



...................................NFO:.................................................[pre]

*******************************************************************************
                 The.Violent.Kind.2010.DVDRip.XviD.AC3-PRESTiGE 
*******************************************************************************

-------------------------------------------------------------------------------
                              General Information
-------------------------------------------------------------------------------

TiTLE............: The.Violent.Kind.2010.DVDRip.XviD.AC3-PRESTiGE

iMDB.............: http://www.imdb.com/title/tt1472195/

GENRE............: Drama

SOURCE...........: DVD5 THANKS!!

ENCODED by.......: akosipalos

FiLE SiZE........: 1.37GB

SUBS.............: English Subs (If needed)

DURATiON.........: 1h 28mn


ViDEO iNFO:

ID                               : 0
Format                           : MPEG-4 Visual
Format profile                   : Advanced Simple@L5
Format settings, BVOP            : No
Format settings, QPel            : No
Format settings, GMC             : No warppoints
Format settings, Matrix          : Custom
Codec ID                         : XVID
Codec ID/Hint                    : XviD
Duration                         : 1h 28mn
Bit rate                         : 1 879 Kbps
Width                            : 640 pixels
Height                           : 368 pixels
Display aspect ratio             : 16:9
Frame rate                       : 23.976 fps
Color space                      : YUV
Chroma subsampling               : 4:2:0
Bit depth                        : 8 bits
Scan type                        : Progressive
Bits/(Pixel*Frame)               : 0.333
Stream size                      : 1.16 GiB (85%)
Writing library                  : XviD 58


AUDiO iNFO:

ID                               : 1
Format                           : AC-3
Format/Info                      : Audio Coding 3
Mode extension                   : CM (complete main)
Codec ID                         : 2000
Duration                         : 1h 28mn
Bit rate mode                    : Constant
Bit rate                         : 320 Kbps
Channel(s)                       : 6 channels
Channel positions                : Front: L C R, Side: L R, LFE
Sampling rate                    : 48.0 KHz
Bit depth                        : 16 bits
Stream size                      : 203 MiB (15%)
Alignment                        : Split accross interleaves
Interleave, duration             : 96 ms (2.30 video frames)
Interleave, preload duration     : 96 ms
Language                         : English



-------------------------------------------------------------------------------
                                 PLOT:
-------------------------------------------------------------------------------


One night at a secluded farmhouse deep in the Northern California woods, a small group of hardened young bikers and their girlfriends are tormented when one of the girls becomes savagely possessed and a gang of Rockabillies seemingly from the 1950's descends upon them to collect what is growing inside her.


-------------------------------------------------------------------------------
                                 CAST:
-------------------------------------------------------------------------------


Cory Knauf ...	Cody
Taylor Cole ...	 Shade
Bret Roberts ... Q
Christina Prousalis ... Megan
Tiffany Shepis ... Michelle
Nick Tagas ... Elroy
Joe Egender ... Vernon
Joseph McKelheer ... Jazz
Samuel Child .. Murderball
Mackenzie Firgens ... Trixie
Ilea Matthews ... Pussywagon
Terry Wayne ... Dave
David Fine ... Gin
Gigi Benson ... Pedestrian
Erik Braa .. Driver
Francesca Brandelius ... Stripper
Martin Chill ... Younger gin
James Hiser ... Tim
Steven Jetton ... The Crew - Biker
Lynn McRee ... Linda
Lynn McRee ... Mom
Rick Neitzel ... Pedestrian
Montgomery Paulsen ... Cook
Jeff Redlick ... Good Samaritan
Rocket ... Stripper
Seamus Seanachaoi ... Old Man Wilmer
Derek W. Adam ... Biker - The Crew
James Olea ... Mexican Zombie 


-------------------------------------------------------------------------------
                               Release Notes
-------------------------------------------------------------------------------


PRESTiGE - IS LOOKING FOR?: CAMMER'S, AUDIO SUPPLIERS, SYNCER'S, RETAIL
SUPPLIER'S, SILVER'S, SCREENER'S, LINE CAPPER'S

ENCODER'S - ANYTHING AT ALL EMAIL US AT..... prestige@hushmail.me

** ** ** ** ** ** ** ** **

PRESTiGE is the level of respect at which one is regarded by others....RIzE Above Or Sink Below...


-------------------------------------------------------------------------------
                                 GREETZ:
-------------------------------------------------------------------------------


twisted ,bigguy, CTFX, HiTM4N, smelise.paranoid53, mtyy, fifer, akosipalos, DiLLoN, imagine,"the squad" , floridajoe and To All Encoders Past And Present...


-------------------------------------------------------------------------------
Generated with Cool NFO Creator - http://fly.to/coolbeans
-------------------------------------------------------------------------------
[/pre]